<mxfile host="app.diagrams.net" agent="Mozilla/5.0 (X11; Ubuntu; Linux x86_64; rv:135.0) Gecko/20100101 Firefox/135.0" version="26.0.16">
  <diagram name="Page-1" id="MKiNhnWRQaprCZO8Ct5M">
    <mxGraphModel dx="1434" dy="766" grid="1" gridSize="5" guides="1" tooltips="1" connect="1" arrows="1" fold="1" page="1" pageScale="1" pageWidth="1100" pageHeight="850" math="0" shadow="0">
      <root>
        <mxCell id="0" />
        <mxCell id="1" parent="0" />
        <mxCell id="2RrRSTnliVrdSCVUR0gN-226" value="" style="rounded=0;whiteSpace=wrap;html=1;dashed=1;" parent="1" vertex="1">
          <mxGeometry x="60" y="177.5" width="190" height="200" as="geometry" />
        </mxCell>
        <mxCell id="2RrRSTnliVrdSCVUR0gN-212" value="&lt;b&gt;CWT&lt;/b&gt;" style="rounded=0;whiteSpace=wrap;html=1;fontFamily=NewsGotT;strokeColor=default;strokeWidth=2;align=center;verticalAlign=middle;fontSize=14;fontColor=default;fillColor=default;" parent="1" vertex="1">
          <mxGeometry x="615.06" y="245" width="180" height="125" as="geometry" />
        </mxCell>
        <mxCell id="2RrRSTnliVrdSCVUR0gN-214" value="s_data_i[12:0]" style="text;html=1;align=left;verticalAlign=middle;resizable=0;points=[];autosize=1;strokeColor=none;fillColor=none;spacing=0;fontFamily=NewsGotT;spacingLeft=3;spacingRight=-10;spacingBottom=-2;spacingTop=-2;" parent="1" vertex="1">
          <mxGeometry x="615.06" y="273" width="70" height="20" as="geometry" />
        </mxCell>
        <mxCell id="2RrRSTnliVrdSCVUR0gN-216" value="start_i" style="text;html=1;align=left;verticalAlign=middle;resizable=0;points=[];autosize=1;strokeColor=none;fillColor=none;fontFamily=NewsGotT;fontSize=12;fontColor=default;spacing=0;spacingLeft=3;spacingRight=-10;spacingBottom=-2;spacingTop=-2;" parent="1" vertex="1">
          <mxGeometry x="615.06" y="297" width="40" height="20" as="geometry" />
        </mxCell>
        <mxCell id="2RrRSTnliVrdSCVUR0gN-217" value="dl_busy_i" style="text;html=1;align=left;verticalAlign=middle;resizable=0;points=[];autosize=1;strokeColor=none;fillColor=none;fontFamily=NewsGotT;fontSize=12;fontColor=default;spacing=0;spacingLeft=3;spacingRight=-10;spacingBottom=-2;spacingTop=-2;" parent="1" vertex="1">
          <mxGeometry x="615.06" y="321" width="50" height="20" as="geometry" />
        </mxCell>
        <mxCell id="2RrRSTnliVrdSCVUR0gN-219" value="cwt_re_o[31:0]" style="text;html=1;align=right;verticalAlign=middle;resizable=0;points=[];autosize=1;strokeColor=none;fillColor=none;fontFamily=NewsGotT;fontSize=12;fontColor=default;spacing=0;spacingRight=3;spacingLeft=-9;spacingBottom=-2;spacingTop=-2;" parent="1" vertex="1">
          <mxGeometry x="720.06" y="256" width="75" height="20" as="geometry" />
        </mxCell>
        <mxCell id="2RrRSTnliVrdSCVUR0gN-220" value="cwt_im_o[31:0]" style="text;html=1;align=right;verticalAlign=middle;resizable=0;points=[];autosize=1;strokeColor=none;fillColor=none;fontFamily=NewsGotT;fontSize=12;fontColor=default;spacing=0;spacingRight=3;spacingLeft=-9;spacingBottom=-2;spacingTop=-2;" parent="1" vertex="1">
          <mxGeometry x="720.06" y="283" width="75" height="20" as="geometry" />
        </mxCell>
        <mxCell id="2RrRSTnliVrdSCVUR0gN-221" value="cwt_ready_o" style="text;html=1;align=right;verticalAlign=middle;resizable=0;points=[];autosize=1;strokeColor=none;fillColor=none;fontFamily=NewsGotT;fontSize=12;fontColor=default;spacing=0;spacingRight=3;spacingLeft=-9;spacingBottom=-2;spacingTop=-2;" parent="1" vertex="1">
          <mxGeometry x="730.06" y="311" width="65" height="20" as="geometry" />
        </mxCell>
        <mxCell id="2RrRSTnliVrdSCVUR0gN-222" value="busy_o" style="text;html=1;align=right;verticalAlign=middle;resizable=0;points=[];autosize=1;strokeColor=none;fillColor=none;fontFamily=NewsGotT;fontSize=12;fontColor=default;spacing=0;spacingRight=3;spacingLeft=-9;spacingBottom=-2;spacingTop=-2;" parent="1" vertex="1">
          <mxGeometry x="755.06" y="338" width="40" height="20" as="geometry" />
        </mxCell>
        <mxCell id="2RrRSTnliVrdSCVUR0gN-225" value="" style="shape=image;verticalLabelPosition=bottom;labelBackgroundColor=default;verticalAlign=top;aspect=fixed;imageAspect=0;image=data:image/jpeg,/9j/4AAQSkZJRgABAQAAAQABAAD/2wBDABALDA4MChAODQ4SERATGCkbGBYWGDIkJh4pOzQ+PTo0OThBSV5QQUVZRjg5Um9TWWFkaWppP09ze3Jmel5naWX/2wBDARESEhgVGDAbGzBlQzlDZWVlZWVlZWVlZWVlZWVlZWVlZWVlZWVlZWVlZWVlZWVlZWVlZWVlZWVlZWVlZWVlZWX/wAARCALQAtADAREAAhEBAxEB/8QAGwABAQADAQEBAAAAAAAAAAAAAAECAwQGBQf/xAA3EAEAAgIABgEDAwIGAQMFAQAAAQIDEQQFEiExQVEGImETMnEUgSNCUpGxwaEVJdE0NVNiY3L/xAAYAQEBAQEBAAAAAAAAAAAAAAAAAQIDBP/EAB8RAQEBAQADAQADAQAAAAAAAAABEQISITEDE0FRYf/aAAwDAQACEQMRAD8A/QAAAAAAAAAAAAAAAAAAAAAAAAAAAAAAAAAAAAAAAAAAAAAAAAAAAAAAAAAAAAAAAAAAAAAAAAAAAAAAAAAAAAAAAAAAAAAAAAAAAAAAAAAAAAAAAAAAAAAAAAAAAAAAAAAAAAAAAAAAAAAAAAAAAAAAAAAAAAAAAAAAAAAAAAAAAAAAAAAAAAAAAAAAAAAAAAAAAAAAAAAAAAAAAAAAAAAAAAAAAAAAAAAAAAAAAAAAAAAAAAAAAAAAAAAAAAAAAAAAAAAAAAAAAAAAAAAAAAAAAAAAAAAAAAAAAAAAAAAAAAAAAAAAAAAAAAAAAAAAAAAAAAAAAAAAAAAAAAAAAAAAAAAAAAAAAAAAAAAAAAAAAAAAAAAAAAAAAAAAAAAAAAAAAAAAAAAAAAAAAAAAAAAAAAAAAAAAAAAAAAAAAAAAAAAAAAAAAAAAAAAAAAAAAAAAAAAAAAAAAAAAAAAAAAAAAAAAAAAAAAAAAAAAAAAAAAAAAAAAAAAAAAAAAAAAAAAAAAAAAAAAAAAAAAAAAAAAAAAAAAAAAAAAAAAAAAAAAAAAAAAAAAAAAAAAAAAAAAAAAAAAAAAAAAAAAAAAAAAAAAAAAAAAAAAAAAAAAAAAAAAAAAAAAAAAAAAAAAAAAAAAAAAAAAAAAAAAAAAAAAAAAAAAAAAAAAAAAAAAAAAAAAAAAAAAAAAAAAAAAAAAAAAAAAAAAAAAAAAAAAAAAAAAAAAAAAAAAAAAAAAAAAAAAAAAAAAAAAAAAAAAAAAAAAAAAAAAAAAAAAAAAAAAAAAAAAAAAAAAAAAAAAAAAAAAAAAAAAAAAAAAAAAAAAAAAAAAAAAAAAAAAAAAAAAAAAAAAAAAAAAAAAAAAAAAAAAAAAAAAAAAAAAAAAAAAAAAAAAAAAAAAAAAAAAAAAAAAAAAAAAAAAAAAAAAAAAAAAAAAAAAAAAAAAAAAAAAAAAAAAAAAAAAAAAAAAAAAAAAAAAAAAAAAAAAAAAAAAAAAAAAAAAAAAAAAAAAAAAAAAAAAAAAAAAAAAAAAAAAAAAAAAAAAAAAAAAAAAAAAAAAAAAAAAAAAAAAAAAAAAAAAAAAAAAAAAAAAAAAAAAAAAAAAAAAAAAAAAAAAAAAAAAAAAAAAAAAAAAAAAAAAAAAAAAAAAAAAAAAAAAAAAAAAAAAAAAAAAAAAAAAAAAAAAAAAAAAAAAAAAAAAAAAAAAAAAAAAAAAAAAAAAAAAAAAAAAAAAAAAAAAAAAAAAAAAAAAAAAAAAAAAAAAAAAAAAAAAAAAAAAAAAAAAAAAAAAAAAAAAAAAAAAAAAAAAAAAAAAAAAAAAAAAAAAAAAAAAAAAAAAAAAAAAAAAAAAAAAAAAAAAAAAAAAAAAAAAAAAAAAAAAAAAAAAAAAAAAAAAAAAAAAAAAAAAAAAAAAAAAAAAAAAAAAAAAAAAAAAAAAAAAAAAAAAAAAAAAAAAAAAAAAAAAAAAAAAAAAAAAAAAAAAAAAAAAAAAAAAAAAAAAAAAAAAAAAAAAAAAAAAAAAAAAAAAAAAAAAAAAAAAAAAAAAAAAAAAAAAAAAAAAAAAAAAAAAAAAAAAAAAAAAAAAAAAAAAAAAAAAAAAAAAAAAAAAAAAAAAAAAAAAAAAAAAAAAAAAAAAAAAAAAAAAAAAAAAAAAAAAAAAAAAAAAAAAAAAAAAAAAAAAAAAAAAAAAAAAAAAAAAAAAAAAAAAAAAAAAAAAAAAAAAAAAAAAAAAAAAAAAAAAAAAAAAAAAAAAAAAAAAAAAAAAAAAAAAAAAAAAAAAAAAAAAAAAAAAAAAAAAAAAAAAAAAAAAAAAAAAAAAAAAAAAAAAAAAAAAAAAAAAAAAQAFAAAAAAAAAAAAAAAAAAAAAAAAAAAAAAAAAAAAAAAAAAAAAAAAAAAAAAAAAAAAAAAAAAAAAAAAAAAAAAAAAAAAAABAfO5hzzgeX3imfNHX/pr30uDLgec8DzC3Tw+aJt/pntJg70FAAAAAAAAAAAAAAAAAAAAAAAAAAAAAAAAAAAAAAAAAAAAAAAAAAAAAAAAAAAAAAAAAAAAAAAAAAAAAAAAAAABAY5ctMNJvkvFKx5mZB5Dnn1b1dXD8unt4nN/wDDWDyd8lr2m9rTa0+ZkEx5b47xfHaa3ie0xIPWck+rbVtXBzLvXxGWPX8mD1+LNjz44vivF6z4mJZGYKAAAAAAAAAAAAAAAAAAAAAAAAAAAAAAAAAAAAAAAAAAAAAAAAAAAAAAAAAAAAAAAAAAAAAAAAAAAAAAAACA+ZzbnvCcrrMXv15fWOvkHhObc64nmmWZy3mmP1jiezQ+bP4UYguwX13B9DlnN+L5bkicGSZp7pM9pB7flP1HwfMaxW1oxZvdbf8ATOD7PlBQAAAAAAAAAAAAAAAAAAAAAAAAAAAAAAAAAAAAAAAAAAAAAAAAAAAAAAAAAAAAAAAAAAAAAAAAAAAAAAY3vXHSb3tFax5mQeR579W6m3D8unfqcv8A8LIPIZct8uSb5LTa8+ZlpGvYpvuBIAALEgsW1O4nU/gHo+TfVOfgtYuKic2H59wmD2nA8fw/H4Yy8Nki0T5j3DI6gAAAAAAAAAAAAAAAAAAAAAAAAAAAAAAAAAAAAAAAAAAAAAAAAAAAAAAAAAAAAAAAAAAAAAAAAAAAQHDzTm3C8rwzfPeOr/LSPMmDwnOPqDiuZzNJt+ng32pX3/Kj48yoxVFFJAABPYLIGxGW9A6eD43iOCyxk4bJNLfjxIr2fJ/qvDxU1w8ZEYcs9ot/llmwekiYtETE7ifcIKAAAAAAAAAAAAAAAAAAAAAAAAAAAAAAAAAAAAAAAAAAAAAAAAAAAAAAAAAAAAAAAAAAAAAAACATMRG5nUA81z76px8J1cPwUxkze7+qrIPE8RxOXic05eIyTkyT5mWhpnugihsEAABfPgEBQNgAsTqQZA+3yT6j4jltopltbLw/usz3j+Ewe45fzThOZY4vw2WLfNZ8wyO0AAAAAAAAAAAAAAAAAAAAAAAAAAAAAAAAAAAAAAAAAAAAAAAAAAAAAAAAAAAAAAAAAAAAAEBy8fzDhuX4Zy8Tkiseo9yDw/OvqbiOYTbHgmcOD492akHwJlRAASZAjwAAAAABvsCggKC+wXcg3cPxOXhcsZcGSaXj3APYcl+rseWYwcw/w7+snqf5ZweppeuSkWpaLVnxMSgoKAAAAAAAAAAAAAAAAAAAAAAAAAAAAAAAAAAAAAAAAAAAAAAAAAAAAAAAAAAAAAAAACATOo7g89zv6ow8DNsPCxGXNHmfVVkHh+N43PxuecvEXm9p/wBoUc0zudqHoEA2AAAAACAyBPYKAAACgRIHoH1+T8+4nlloiszkw+6TP/CYPdcq5xwvNMUWw3iL/wCak+YTB9BABQAAAAAAAAAAAAAAAAAAAAAAAAAAAAAAAAAAAAAAAAAAAAAAAAAAAAAAAAAAAAQAGrieJw8Jhtlz3ilKxuZmQeE539UcRx02xcLM4cHjcebNSDz02mZ/5VEQFUBJA9AAAAAfwCaBQAAWQQAAFABYkRtw58mDLGTFe1Lx7rIPWcm+r53XDzKO3iMsf9s4r12LLjzY4yYrxek+JiUGQAKAAAAAAAAAAAAAAAAAAAAAAAAAAAAAAAAAAAAAAAAAAAAAAAAAAAAAAAAAACA+Hzn6m4Xl28eKYzZ/9MT2j+VweG5jzPiuZZpycRkmYnxSJ7Q0OOZBiAAIQKoIB4A2CiIKfwBoAAACfIAAL4AAAgF2C77A+lyrnXF8svvFebY/eO3hMHuOUfUHCczpERaMeb3S0/8ACYPrIKAAAAAAAAAAAAAAAAAAAAAAAAAAAAAAAAAAAAAAAAAAAAAAAAAAAAAAAACA08VxWDg8M5eIyRSke5B4nnX1Xm4yZw8DM4cPib/5rNSDzdrbtvczPzPtRjvugKAAIACggLIJoFABAAQFBAWQIEAAUUAA2ADKO4MqZJpaLVmYtHiYQeo5N9W5MPTh5hE5KeIyR5j+TB7HhuJw8VijJgyVvWfcSyNoAKAAAAAAAAAAAAAAAAAAAAAAAAAAAAAAAAAAAAAAAAAAAAAAAAAAACAA+Rzr6g4blVOncZc8+KVn/lZB4PmfNOJ5pl6+Iv8Ab6pHiGhw7BAQCAAAAUEBdAgKBAAEAkgAAAsRsAARAWBQAAAFiQANg7uW804nluXrwXmI919SD3HJvqThuYxGPLMYc/xM9p/hmwfbQUAAAAAAAAAAAAAAAAAAAAAAAAAAAAAAAAAAAAAAAAAAAAAAAAAAEBhmzYuHxTkzXrSkeZmQeN559W2zdXD8t3Wvics+Z/hqQeUva1rTa1ptafMz5lUYyBsVAAPEAQBP4AkF9AgN2C1Itq0dpEZ5sFY+6k9k1XPPaVDyISB7FJBNgACM8c/dEa2it08PfJbcRFYNXGq+K1JmJ9GmMJj8aNQUSBF9igAEAoAG9CLFpjUxMxMA9NyX6rzcJFcPGxOXF4i3+aqYr2fB8bw/G4oycPkres/HmGRvABQAAAAAAAAAAAAAAAAAAAAAAAAAAAAAAAAAAAAAAAAAAAAAAQHzeb884TlWKf1LxbL/AJcceZXB4Hm3OOK5pkm2a0xj39uOPEND5syCbA2ABsCZA0ACgkgR5ifQO79PHlwft+6PbOq4p7TqfSxGzFmnH571MGyaVy13Wf7INdsU0n8Lo1qNmPH+pGqxO/lKNuTh6xSOnz7lnRzWjUtCKAjq4asR3mu/yirk4mabisd/lMNTFktmyRS0ROw0yYZm01mIiY8IrXfh8lO9o7NajVMAT4UAAANgSCgAuwdPBcdxHBZYycPlmlo+PEg9pyX6qwcX04eM1izeIt6szYPRxMTG47wgoAAAAAAAAAAAAAAAAAAAAAAAAAAAAAAAAAAAAAAAAAAAAAMbWrSs2tMREeZkHlOffVdccW4fl09WTxOX1H8LIPGZc2TLknJlvN7z5tPlRhM7UQAAADQEAoEgVjc6BnOG/wAdk0S1ZrOpg0dXDT/hWjvEs1pzZa6tv5WVGENMlZmttx2kV0Y89bfbk/3TBf6f79+a/hB0ROLFji09p+BXJn4m2Wftjpr8LINMyqIADbiz2pXpnvCDC1tzsiV0cNNImNfu+SrG3LxGKvbp67x7Zyrsa44qckxF41AJbh/ttaJ7eliOaGg9iH8ggqgAAAQCgsIPu8n+puL5fNceaZz8PHqfMfwYPbct5rwvMsUX4fJEz7rPmGR2goAAAAAAAAAAAAAAAAAAAAAAAAAAAAAAAAAAAAAAAAAIDj5lzTheWYf1OJyRE+qx5kHgucfUPE8zyWit7YsHqkT5/lrB8faiAgIACgAASAABANtc96donsmDb/Wb1+pjidGDOM+O/asTWZRdbP0axH+LHb5ZGH6GC37LNaYxng+q0RE6j5NGnNw9sNtW7x8rqMKZr45+2TBL3te27TuTBFHRiwUnFu37p8M6NV8c0n5XRgoQCCNmHHOS/TE62is7cPelpr5k0xswcLa07vOtekVsy5a1pNYn+IIOH2qCifyC+IAj5BANgbA2C9wXYLsG7heKy8JljLgyTS0e4B7Lkn1Zjz9ODmGseSe0ZPUs2D09L1vWLUtFqz4mJQUFAAAAAAAAAAAAAAAAAAAAAAAAAAAAAAAAAAAAAABJmIjczqI9g81zz6qw8JFsHBTGXP46vVVkHiuK4rPxmacvEZJyXn3PppHOKeAQFBJgACQIBQQRdCsv07RG+nsDGY15QY7EVRYnpmJ9wVX0Iyfq8PH+pjFcN4mt9bmGkT9S8dovJgytnyWrq9twYNagBKDsw3rasUmdTCYp+pii80tG4+QYXwRbdscqjRNZjzBoioRuPE6RW6vFZKTGp8fKBbislt+trhrTMzM7nvJIi0pN/EdhXdh4emPF12jc/llY158XVHVXX9lhXJKxCZUTcCHkUmAUAAFA2IsSK+tynn3F8svEVtOTD7paf+EHuOVc74TmdP8ACv05PdLeUwfSQUAAAAAAAAAAAAAAAAAAAAAAAAAAAAAAAAAAAEBo43jeH4HBObickUrHz7B4XnX1PxHMJti4feLh/wAebNYPP7USZBAXe5ABAUE2CAoAMqUtknVY2mjpx4cdO953afSWqyz48vRH6P3fhFa5r101euphdGicc17xG4XWcTyuoCujhstaRNbzrfhBrz9MzExO5TBp8NDKtLXtFaxuZQdWPgt/unulq4xvwsxMxG9pKNFqzWdTDSJ+VRNpg2Y89sc9v9jB0RNM9dV1FkVh/Sz19M20aq5cFKzqs6iPK6Y5lRAZ44i1oiwOy01xUia61KDnycTkvT9Pf2oM+Fy6not4n5FY8Tjis7rJBzy0hAgKoAAAKB60ACwDZiy3xZIvjtNbR3iYB6vk31bNZrh5j3r4jLH/AGyPXYcuPPjjJivF6W8TEoMwUAAAAAAAAAAAAAAAAAAAAAAAAAAAAAAAAEB8Hnn1Lg5fE4uHmMvEfEeK/wArg8Nx/H8Tx+acvE5ZvPqJ8Qo5NqAAAGtAgiioBoADt/cG7Fw9skb1qEtI6cdox/bWIifljWmU0jz5kVljvOu3YF/TpedzOpQaMmK9JmI10qjTkwRrdfKpjVNZrOpjTSJr5USREgHdwVLam9dJVYcRxGStppXtPuUkXWGDLknNG5md+VsR1ZcEft8xb38M6058vCzjntO11Mc9qzE/dC6YnhUdHD46zPVN+mYSjpyZ6UmLW1aY8QziuLJlnJaZn36aiawiJtOoiZUZfpXjv0ToGM9kDc/MqALHZB147Uy0797Qg5suOa236WKw0qHoDyBoAFAAAmdAoG9AuzB9DlfN+L5bk3gyTNPdJ8SlHueVfUHB8xpEdcY83ulksH1kFAAAAAAAAAAAAAAAAAAAAAAAAAAAAABAaeK4rBweGcvEZK0pHuZB4fnf1Rn421sPB2nFh3rqjzZrB52Z3MzMzMz5mVGIAERNp1AOvHwtJjeSe+u0M1VjhaRS02jfwDmy0rSdVt5XUYeFEAAQZVrN51EdzR1YuHimrXjc/DNqts9U9o7QirSkRExfW5BnWOmZmIRWMza1dzHTPwoy6YrHcCbTr9u4BrnFqZnep+AaMkb7T3VGi9Jr4a1lgBKo2Y818f7Z7IrDJeb2m0+QbsGaMUTuI7+ymtl+LtETFJ3+ZTF1hTiskWiZnq/ksNdGTHW2LfjfdFcEx3ajJE+1Ce4hWN2iI9pVdlcUU70nvHlFWeM+7U96x+BGG8WW0z436Bhfh5ivVHg0aNTE6ldF9KLjtOO3VCDrnHGXH1bQccxqdT3UANT6NBQBAAAXyAAAC7BlFprMTEzEx7gHoOT/AFVxHBRXFxW82H5/zQmD23Bcdw/H4Iy8Nki9Z/3hkdAKAAAAAAAAAAAAAAAAAAAAAAAAAACA4Ob82wcq4acmSd3n9lI8ysg/O+Z8z4nmeecnEXma/wCWkeIaHDM/AIAADbw0/wCJr5+Uo6pmZntWZmPiGa0xtl321asxPuNIJ04csd5jfyqOW+otOvENRKk1mPPaFEBnTFa0b12Zo6sUTSv21iZZpGzpmZ6kaZ7idQql51WNxufQJ1715iUGW5mszMdSjG89q9XbYjHNPTqJyREfgFjp6JmLdX5Bo/Tm07mRUvW2PVtbgRhatcsTasat8NI55iazMSqJtUNgzxxFramdJVdM8LE66bRKaMseDHWN3nclq4cRn1ERWYmNJCuPzO20AIAr2tEpR2Vm2ak2rqJ13hlXLavTLURNQuDbizTWYi3evwmDdnpTJEXp4QckxqVElRlFrR4mURio24sV8k6rHZKrqtTFjpNPfuUVx311fb4VGKhoAAAAADYAHsGUA+hyfj83LuNplx2mKTP319TCD9NxZIy4q5K+LRtkZgAAAAAAAAAAAAAAAAAAAAAAAAAAgPAfXOa3/q9KRPauPw1B5mMk77qM978AbABAXep3EiOnHxMx0xMd9+YZsaZ24rH+6J+6PHtMNa8nEW10xqe0zvSyJrn79Uf7/wArguom2qxE/wAWBvrgmkdV+r8Rve00jdFuqe0TEREdqyjTP7fXXuPmNorKvVW33T633jQiTasTbqnxOu0mGpfNgprva38Lia1242vmlNx+TDWqeKyzvUdMT6WRGm+S99TNplcEj7rRuQjsjdccVjsy0ymZ7IMpnrn7o7fANeTHEbnF5Bomsande7Q1XxzHeO8Ky1+JEVRlW947RaYFOu3jcoAM8WK2SYipo6Y4KsRM2t/dNE/oe06yRJqtWTh7Y5+V1GFMlsU7jf8AAOqmXFmpMTWK2ZVpvw9or1R3/CyjXGO894rMrqY6+GpalZjJH2yiufiNdc68ERp00igyx6i8dXgV3VvGOPsr2+WKrkyfqZMndYN+LhqVp1ZdmmMv6fDeJmt4j8SGNOTh5rrp778aEaLRNZ1MalRNKICgAAAd5kGdI7g3QD9Q5fExwGCJ/wBEf8MDpAAAAAAAAAAAAAAAAAAAAAAAAAABAfnX1x/997//AI4ag83M91Fi0wDZFokFAANF+P4lA1PVvfr3ChMxudTHaPQEfur/AAajo4XJTWrdO58bhmtN1aatbxrfplSNRktvx4Beq+OZtjtvcqjTmy5bXmbW9xCwaNz2mZ7TaVRjPmNTE7/ALufE+dgx7TuZrvvPdRI1FP8ANE6Bvw06r9/SEdE1iZ3PV/uy0zjeu0z0/mED906iPAHVFbRryC5K1yR37TPgGimG1bTN9dMeFiOfPqbzrw1Ea4hRkCAbB9DgJj9O3iGaNHEZbzbp32SQaOq0eJna4OvDN8lIi29/KKt+FtMa7Wn5g0ct6TSdT2lrEZY+IyUjUd4/Jg24+J6I1rRhq5eL641FdEiua0zbyqEVm3iJlBsnhskVrMx58GjXelqTq0AzxZbUnz2+CxW7FEZJtbff4ZQzXvGLpmdfgxdcs9/ctYa3cPltS8d9wI2cTj7bmO899oOWWhNAoH8gQC1rufwDLp79gZV7KNkef7wg/U+D/wDo8P8A/iP+GBuAAAAAAAAAAAAAAAAAAAAAAAAAABAfm/1tO+f2j4pDUHnpUTYAMq3mPINkTvwCgARIEyCxPcDfrUA24uJmkdM/tlKSuqs47R1xfv57Mrqxk6p81tH5qisZp1xMxMbmd6NRzXw9OvVvy1KNc/baK/ESqERrXfxPb+FRPFZjc+AOm1o1E7/siuvHSP09/KK2Vjp799RHyyMoi0zERafArGZms78z/Aq111RM/OhGOa1IiZ3+3x/2qOXLltedb1HlcRr9zH5agkTvfxMdgZRW0xaYie0efyiJOvOu3k1SO+lRnjyTSYmPfpFdNf0cs956flBYwYZn92p+EVsniaYu0RE+uyjlpmyVy9XfUg38RjrfD1R+7zsRw+mhdgTsQ+BX0KWpjpHaN6ZqxpycZaZ1qNQgwiuTN+2v911GucGSLamGtMYzFqT4msoYs2taY6pB1f0dLViaZImZTRl+jiwzHXO5/CDVxGeJiaxqYUczQAAAta+wZwBCjKPgGdO8xHzMQg/VOGjXDYo//SP+GBtAAAAAAAAAAAAAAAAAAAAAAAAAABAfmv1puOf5N/6Iag8/vsogAIDOt+n+Aba2ifYLsAAEBQBGeLJ+nO9bj4TFdOHNimOmY1MpYrZWlaTM9W2cUvalq6ms7Bry4otru0jlmsxMwqIo2YccXyRExCUds6mOmI1r4YVj/liu9f2Be3XO50Ky3EbiO8fMg58uatdxGpt5iWk1y2mbeZ9aXETvrv5nyoe9f6o0C71MT6jsI7eFrvBNfnyzWsasmKJ10x2iO6aNFomNxPmZaRJ89lFjt1T8IL1WiY1MwDdGOL0mYnc6QbqYsVO9Y7wKx4jN0TalNTGhHJ4/mZUTt4/5UWNfMf2RDetT/dVdmO0Zcfjdqsq1Y8Vb5J+I8wDp/Wrhp09vxG0Gi3GWtP7YWQ0tX9eOqLd/cGjRek0nUwuonVMfttMGB1zMd52DFQBQIj0DZ0dP5A1KiaBY8AsToG7BHVnxV+bxH/lB+qYo1ipHxWGBmAAAAAAAAAAAAAAAAAAAAAAAAAACA/NPrXvz2+/9MNQefUQFAAAidT2Bsrk/1Ayi8TMAyBIBQAPYJuNg34uImmuqNwlHVTJW09VdfwzViX7zvxKKXik66o0ujRbBM2+zuIzwY9dXV5BtmZiImPCKyiN2idwBkmtImbTowcWTNNtxWdVaxlqaACIQPwosf7iN+HiJxxrW4TFY2zTOSbVjW/Rit0fpZo1rpvMaRGvLw9sWomYkGmf+Z7qL02jW4n+fkDvFe243oDrn0okd5/Mwg2YcM5LxHjU7lB1fp4ceotGvyKwvTFMz0xG+8dgacmG1Pidfg1GumS1J6onU9Sjpx3pkvuZ6ZnvP5QTiN5La7dvwK1xgva2vUeQdGGv6WOZ339xsGrjb7tXWpn/ohXPMd+zTKdtzHx7FWBD4RV1MeQZR4aFgFA/kAAHRwNd8dgj/APpAP1Sv7Y/hzFAAAAAAAAAAAAAAAAAAAAAAAAAABAfmP1jP/v2SN+Kw1B8JQBANgAAgMq21OwbYvEgygAAADQhuEGVLTSd1kxXXj4imTUW+2UsVttG4794+WVY9E1mNW7AlMcxMz17iQbK45n7Y7zAjTnvTHXXV9/xDUg5L2ted2lpE9dgAXU67g28Patbx1xuJBnlw/dMxHafDOri/0lv04tvvPpdRz2rNZ1JoKHjvCDbjyWtOp3M/KDfXh56o3Tf5FXjZx9MR1fdHqCDh7qgovrvG4B18Jev6Vq9oszVjXl673+2LR+IkGeLhZivVeehKOi36XRG7x+fyGtP9PgvH2XjfxK/Bpz4Zx23XvEdl1GFclo9z/eAbK8VqJ+3vM7iTBjfPa1ZrERG/UGDXM94/iQY+O0efAL7nXjUQoaBnWNTsFmdgijIEBdgRALEA7OVVi3M+Hi3ibwlH6fHhgUAAAAAAAAAAAAAAAAAAAAAAAAAAEB+XfV0/+/5v4hqD4ihsAEABQQAF3oGdMkxMR6Bu8/yACAogACCt2PPNO094Sw110vW/ess4ulopWJmban4TDWnJxc61j7flZEcszMzufLQKAAOvH+nbD28oNf8AT2nJEb8pqu2McY6dN538Mq15K3iPsnuI1Y+Gm0zOSZhoas2OMfi24VGpUb+HzVxTq1d79orPLxe5/wAKZiPyYOaZ6p3M7Bljr13iu9bKN2XhbUn7Z6jRzz2nv2UItNZiYkqOrHxmrxN6d/DLTdlndOqdzEoPn27720hSd2jp8hHbaLTj+7vqGVcVvLaJv0Bv47fwC/iAO0eu4LEb/uCzqAWqgACwCgAyiAXQO/kdYnnHCxbx1pR+lMCgAAAAAAAAAAAAAAAAAAAAAAAAAAgPyv6pnfP+J/s1B8dRANgAAgKAACwC1vNZBtpfqjuDIF7AAkgAoEW6e8AWva3mUEhUI8gooIREzPYV18Nw8xPVedQyOiKVpebRO/wy00XjLnv09Wq77NI3dExSaWt3jxLIls1sGPzEyuDhtPVaZlpGKgC9oAmQI7TEpR3dcZMVfWvcM1YTgpljUT3iAcV6amdd4hRJpateqazpUb8PFTSs0vG6yBix1vO5mJhB0RGCsfbERMexWnPxFZ3Wk7n3JiOVoJAgCNzPaAZxER5gFBNd1FA33ABYBYBY8gygF8+AfT+n6dfOeGiI3q20o/RWBQAAAAAAAAAAAAAAAAAAAAAAAAAAQH5b9WY7Y+f8RuNdWphqD4kmmVFADYgiigACgAoEefINlcnqQbInYH8AAAACGgAIBRQFidTuAb44m3R063PymDPh6TMzktZF1unVY6o8Sg5s2W027doVGWPJW+oyelGvPFZyTNfHwDUoamfEblNCe3nezRAZaB18HkitbVmN9kGrWS2TdN7FdWKOmOm1e/yzVM8TaixHz7Rq0xLUSpM6lQ/ugdlAE1oGUVmQZx28ASCqJPgDQJ7Bl4AgFgRl4BY8pq47MXCWnHOW/wBtGL379Ok49e3pPpTlV6ZP63LWaxrVIld9MX69SiKAAAAAAAAAAAAAAAAAAAAAAAAAACA+Rz7kHD84xbt9masfbeAfnvMuU8VyzJOPicU9Pq8R2lLG5Y+VbtMts1BARd9hUiVFAABQAAAZRbUA2UyRuIt4BnM951AAAAAAALAAKADOmW1PHdMGVc1q33PePcGDZmtjyY917T8A5plRfIjPDji9vu8Jqu2OjHXfaNIrCMmO0WiIibT42g5b47UnvVdRhqY9NaNmC8Y8sWnx7Sju6qTM3rMRHtMXXNm4rqjpp4+Uw1qx8Rak6n7oXE1c2THkruI1ZUaFUBQI/gGUVBlEAqiSACxHcCZ9AkQCgvgFBYBu4fFkzZa0xUm15ntEJZDbHtOVchtHRl4+YtMftxx4j+XPI3e7Zj0ERERERGohWFAAAAAAAAAAAAAAAAAAAAAAAAAAAABAauJ4XDxeGcWfHF6z6kHhOffRmXB1Z+X7yU8zT3CjyV8d8d5pes1tHmJgMYzEkq5UaRYQFFAQFFAAAAiQZ1vMA3RMTHkAAAFAAAAABRAAVAUR08Lev7Z7T8s1qGfFebb3sGeHh6x92SfHoG7Jnxx5iJQaJvizW+77Whhlw9t18JqNG5js0J+AQQAFUCI2DOvYGSh7BNAAoAEQC6BYjsBrZo24eGvmnetVc+u5HXj87frt4blWbjuJrh4evaP3W9QnPer3xOXuOVcn4fluKOisWye7yri+iCgAAAAAAAAAAAAAAAAAAAAAAAAAAAAAAAgPj85+nOD5pWbTSMeb1esCy48FzXkvE8tyTXNjmaerxHaWMuu0ssfHyV6Z03HPqMGnMFUAFUAAAAUAFiQba5I9gz3sCAWQAAIAEBQAQFAUD+AbcfEXp72g3Tl6q7jzKK5rRJEK1m06iNtDsiI/T1rvr2yOK0fdLQx9gAAugZRXfkGXoDQChPfuB4AABloCIBlHgD2gzxRvJWPO5StR6/gOS34mlZvH6WLX95ef+Pb7ei/tOZkei4XhMPCY+jDSKx7n5dZMebrq9Xa3qgAAAAAAAAAAAAAAAAAAAAAAAAAAAAAAAAACA18Rw+LicU481IvWfUg8Vz/6MtWLcRy6er3OOf8AojW68ZfDfFlnHkrNLxOpiWmWN6TSe6SrYxaZEFAVVAAABQANgzrbQNtbRPiQZAAAmwAAUEBQAPIAgDOt5r/ANtclYrMTCYutlc2OvfXcw1jfNW09uxhrTa1fQNe1Q0KQDZWO8SDME8KEzsE2CeAN7BQUGWgWBK24OHvntqsf3c+u8dufz12/+l5cuWmHhqze8+fwzz3rff5zmPU8n+mcHBRXLxOsubz+Ibted9+I1GoQUAAAAAAAAAAAAAAAAAAAAAAAAAAAAAAAAAAAAAEB8jnX09wnNcczakUzR4vECy48JzTk/EcvyTTPj3T1eI7SxddebK+Lmx9Fu3iWuaz3PbW25gAKCgAAKAAALE6BtrkBsifyAACgAAAAAAAbAENgbBdgeVQ0irFdisojQLCi+gQFBASQWIA0DIF/gXGVPMfmWel5nt6zl/LMmbHSMVOmvuzzXi9V6v5OeY9JwXA4uDx9OOv3T5t7l1nMkeXrq9X26WmVAAAAAAAAAAAAAAAAAAAAAAAAAAAAAAAAAAAAAAABAa+I4fFxOKceakXrPqQeM599F2mJzcutvXf9Of8ApJGvJ4nNhyYMs481JpeJ1MTDbLDUwkq4KmEAoAKAAAAAobBnW+gba22IygF9CoCgSCAAAAAAAAa2IzrVRn0wEO0IooewAAXxIHsCI7goEx3BlXHN51WGL1I3zxa214a98lcOOJtktOoiGZ3rd4yPYcn+lMXD9ObjZ/UyeYr6hq3XLXpK1ilYrWIiI9QiKCgAAAAAAAAAAAAAAAAAAAAAAAAAAAAAAAAAAAAAAAAAAgPlc55BwfNsc/q0iuX1ePIPB80+nuI5XkmL1m+L1eGLrtzZj42bF0d48LzU6jS6ORAAKCggAKAABAjKLaUbK3BnEisgAAAAAAABAFiAZRVRl4BJkUBQAIBe0AAygACIBl7hL8WfXoOB5dbNStcGPczHeXl65tr18988x6blfJsHAx+pasWzT5tPp155x5++/KvptOagAAAAAAAAAAAAAAAAAAAAAAAAAAAAAAAAAAAAAAAAAAAAAgMcmKmWk0yVi1Z8xMA8lz76NrxEWzcvnov5/TnxJjXk8JxXC5uEzTiz47UvHqYaZa5paI3rsmr4oqAAAKAAAAAC70DOt1G2LAyAAAAAABYEZRVUXwKAaFVAUAJAgFBlEQBAMqxNp1WNylsjU5trdfhclIpGt2t4iGfKNXix6Hk/0pfLNc/Hz008xjjzP8raw9dgwY+HxxTFSK1j4ZRsBQAAAAAAAAAAAAAAAAAAAAAAAAAAAAAAAAAAAAAAAAAAAAAAAQAHz+a8n4TmuGaZ8cdWu148wDwfNuQ5+VWmL0m+H1eIY6124sr4efBFY6qzuE56q98xzuscKbVIoqgAAKACABAM4so21v6kRn/cEBRQAAGUKjIAFAFEBQABdAsQCwixY7l+E+vu8u4KMlaRhxzbJZ5OvLq5Hs48eZteo5bybFw0xlzRF83z8OvPPjHn/T9PKvqtuQCgAAAAAAAAAAAAAAAAAAAAAAAAAAAAAAAAAAAAAAAAAAAAAAAAAAgMcuLHmxzTJSLVnzEwDyHPfo/9SlsnLp1Pn9OWfFvy/wBeF4rhs3CZrYs9JpeJ7xMNxi1q1JpgooEAoAAAAALCjKJEZ1mQbInYAoADKIEZxChoFFIEBRAUAAZKi6n0lqyaytS0ViZie7HlG7zY+5yX6a4jjunLxG8WHz+ZLWfj23C8Hh4TFGPDSIiI8+0LbW8RQAAAAAAAAAAAAAAAAAAAAAAAAAAAAAAAAAAAAAAAAAAAAAAAAAAAAAQAHz+Z8l4LmdZjiMUdX+qPIPE86+lcnLazlw7y4f8AzDPTpzleby4dd48HPS9ctWnRyAAWQQFAAA2ou0GVbKNtZBlsFBdAyiFRkCAAooAACgsQIyiu1JX0+B4H9SaxSs3vPp5u7bfT1fnJJtep5Z9P0xZK5+JiLWjxX1C8845/p+nl6j70RERqI1DbkoAAAAAAAAAAAAAAAAAAAAAAAAAAAAAAAAAAAAAAAAAAAAAAAAAAAAAAAAAICXpF6zW0RMT5iQeT559J4+Im2Xg/8O8+a+pTGp08TxvL+I4HJOPiMc1n59S6z45365GbWpEA9AQCgAAAAQDOttKNlbbBsqDKO4MlQBQQFFAAAZRUTW39OYr1THY2Lj6fKuS8Rx96210YvdpLZjOe3uOB5fg4LHFcVI3rvb25t2uwQBQAAAAAAAAAAAAAAAAAAAAAAAAAAAAAAAAAAAAAAAAAAAAAAAAAAAAAAAAAAQCYifIOHmHLOH4/DbHnxxaJjzrvAPAc4+nM3K7TasTkwTPa0ekrpzj4WXFrvHgnR1y1NuQKoAAAAALCjKJEbKWnwDfXuooAKAKAAugZVqrOuzh+G6pjcbmfEOXfefHbj89916PlvIP1Zrk4quqx3iiT/p1Z8j0+HDXFSK0rFax4iFc20FAAAAAAAAAAAAAAAAAAAAAAAAAAAAAAAAAAAAAAAAAAAAAAAAAAAAAAAAAAAAABAAas+KuXHNb1i1Z8xIPHc8+l626svB/bPunpMa8v9eM4jhc3DXmmak1n8txitIGxViQAFBAAA2o2UkHTTwJjJVUQAFNAsQDOKrGa7eA5bxHHZIjFT7fdp8J1V5j2nLOTYuErWbR13j3Lk6Xp9etIhWGQAKAAAAAAAAAAAAAAAAAAAAAAAAAAAAAAAAAAAAAAAAAAAAAAAAAAAAAAAAAAAAAAACA1ZMUWgHx+Zcmw8XSYyY4n8mma8ZzX6bzcLNr4Ym9Pj3C6Y+Fak1nUxMSauMVRfYEgAAAA244UdFIVGYAEQKyiq4zrKK+i+lnt14ODtbUzDje/b0T8/Wvvct+m5z9OXiN1p6r8tSuNeo4bhMeCkVx0itY+ER0xGgAUAAAAAAAAAAAAAAAAAAAAAAAAAAAAAAAAAAAAAAAAAAAAAAAAAAAAAAAAAAAAAAAAAEABLVi0dwc2fha3idwK85zb6axcTE2xx0ZPmFR4nmHAZ+AyzTNjmPifUqY4wUEUVBAUG7Eo6IVFiAZ1qqM61XE1n0TEb0mxqc10cDwGfj80UwUm3zPqEtWTHuOWckxcJSs5Y68kR/s5ZG73b6fViIhWFBQAAAAAAAAAAAAAAAAAAAAAAAAAAAAAAAAAAAAAAAAAAAAAAAAAAAAAAAAAAAAAAAAAAAAAQAGNscW9A4+M5bg4vHOPPji1Z+YB4nnX0jl4SZz8HvJi919wLHnL4e8xEatHmJZ8sdfDWm1ZrPeNNyud5RWQAHRgjcKOmKqjKKirEJas5128Pwk21bJGo9R8uXXd3Hbj859fc4HkN+Pms5InHgjz8yc6d9Seo9VwfBYOCwxi4fHFax/5acG8AFAAAAAAAAAAAAAAAAAAAAAAAAAAAAAAAAAAAAAAAAAAAAAAAAAAAAAAAAAAAAAAAAAAAAAAAAABASYiY1MA+Hzf6Y4Tj4nJiiMWb5jxKWa1OrHgec8p4vluaa58c9Pq8R2lZFt18uG3NUVdKOvhq/bsg6NaVDaLjq4Hgs/GZopgpNp359QVZ09vy3kVMFK24j77x69Q557a87mPsxEVjURqIVgBQAAAAAAAAAAAAAAAAAAAAAAAAAAAAAAAAAAAAAAAAAAAAAAAAAAAAAAAAAAAAAAAAAAAAAAAAAAAAAQGrieFw8Xhtiz463pPqYB4Tn30ZlwWtm5f9+Pz0e4UeYnBNLTTJWaXr5iUb9Neu+ljNju4Wv8Ah/8AbaOvBw85raj/AMMddX+m+eZ/b7/LfpW/ETXLxMzTH6r7lJ/p1f6j1nCcFw/BY4pgxxWPn5XWG9ABQAAAAAAAAAAAAAAAAAAAAAAAAAAAAAAAAAAAAAAAAAAAAAAAAAAAAAAAAAAAAAAAAAAAAAAAAAAAAAAAQAHyOb/TvB8zrM2pGPL6vUHhea/TfH8ttMzjnLi9Xr3agy5XwHEcTWMePFbcz8NGvc8n5Ji4DHFslYtlnzM+mbdH1mQBQAAAAAAAAAAAAAAAAAAAAAAAAAAAAAAAAAAAAAAAAAAAAAAAAAAAAAAAAAAAAAAAAAAAAAAAAAAAAAAAAAAAASYi0amImPiQY0xY8f7KVr/EAyBQAAAAAAAAAAAAAAAAAAAAAAAAAAAAAAAAAAAAAAAAAAAAAAAAAAAAAAAAAAAAAAAAAAAAAAAAAAAAAAAAAAAAAAAAAAAAAAAAAAAAAAAAAAAAAAAAAAAAAAAAAAAAAAAAAAAAAAAAAAAAAAAAAAAAAAAAAAAAAAAAAAAAAAAAAAAAAAAAAAAAAAAAAAAAAAAAAAAAAAAAAAAAAAAAAAAAAAAAAAAAAAAAAAAAAAAAAAAAAAAAAAAAAAAAAAAAAAAAAAAAAAAAAAAAAAAAAAAAAAAAAAAAAAAAAAAAAAAAAAAAAAAAAAAAAAAAAAAAAAAAAAAAAAAAAAAAAAAAAAAAAAAAAAAAAAAAAAAAAAAAAAAAAAAAAAAAAAAAAAAAAAAAAAAAAAAAAAAAAAAAAAAAAAAAAAAAAAAAAAAAAAAAAAAAAAAAAAAAAAAAAAAAAAAAAAAAAAAAAAAAAAAAAAAAAAAAAAAAAAAAAAAAAAAAAAAAAAAAAAAAAAAAAAAAAAAAAAAAAAAAAAAAAAAAAAAAAAAAAAAAAAAAAAAAAAAAAAAAAAAAAAAAAAAAAAAAAAAAAAAAAAAAAAAAAAAAAAAAAAAAAAAAAAAAAAAAAAAAAAAAAAAAAAAAAAAAAAAAAAAAAAAAAAAAAAAAAAAAAAAAAAAAAAAAAAAAAAAAAAAAAAAAAAAAAAAAAAAAAAAAAAAAAAAAAAAAAAAAAAAAAAAAAAAAAAAAAAAAAAAAAAAAAAAAAAAAAAAAAAAAAAAAAAAAAAAAAAAAAAAAAAAAAAAAAAAAAAAAAAAAAAAAAAAAAAAAAAAAAAAAAAAAAAAAAAAAAAAAAAAAAAAAAAAAAAAAAAAAAAAAAAAAAAAAAAAAAAAAAAAAAAAAAAAAAAAAAAAAAAAAAAAAAAAAAAAAAAAAAAAAAAAAAAAAAAAAAAAAAAAAAAAAAAAAAAAAAAAAAAAAAAAAAAAAAAAAAAAAAAAAAAAAAAAAAAAAAAAAAAAAAAAAAAAAAAAAAAAAAAAAAAAAAAAAAAAAAAAAAAAAAAAAAAAAAAAAAAAAAAAAAAAAAAAAAAAAAAAAAAAAAAAAAAAAAAAAAAAAAAAAAAAAAAAAAAAAAAAAAAAAAAAAAAAAAAAAAAAAAAAAAAAAAAAAAAAAAAAAAAAAAAAAAAAAAAAAAAAAAAAAAAAAAAAAAAAAAAAAAAAAAAAAAAAAAAAAAAAAAAAAAAAAAAAAAAAAAAAAAAAAAAAAAAAAAAAAAAAAAAAAAAAAAAAAAAAAAAAAAAAAAAAAAAAAAAAAAAAAAAAAAAAAAAAAAAAAAAAAAAAAAAAAAAAAAAAAAAAAAAAAAAAAAAAAAAAAAAAAAAAAAAAAAAAAAAAAAAAAAAAAAAAAAAAAAAAAAAAAAAAAAAAAAAAAAAAAAAAAAAAAAAAAAAAAAAAAAAAAAAAAAAAAAAAAAAAAAAAAAAAAAAAAAAAAAAAAAAAAAAAAAAAAAAAAAAAAAAAAAAAAAAAAAAAAAAAAAAAAAAAAAAAAAAAAAAAAAAAAAAAAAAAAAAAAAAAAAAAAAAAAAAAAAAAAAAAAAAAAAAAAAAAAAAAAAAAAAAAAAAAAAAAAAAAAAAAAAAAAAAAAAAAAAAAAAAAAAAAAAAAAAAAAAAAAAAAAAAAAAAAAf//Z;clipPath=inset(22.33% 12.67% 19.67% 16%);" parent="1" vertex="1">
          <mxGeometry x="75.06" y="237.5" width="159.89" height="130" as="geometry" />
        </mxCell>
        <mxCell id="2RrRSTnliVrdSCVUR0gN-229" value="Sensor&lt;br&gt;&lt;div&gt;Accelerometer&lt;/div&gt;" style="text;html=1;align=center;verticalAlign=middle;resizable=0;points=[];autosize=1;strokeColor=none;fillColor=none;fontStyle=1;fontFamily=NewsGotT;fontSize=14;" parent="1" vertex="1">
          <mxGeometry x="109.5" y="181.5" width="95" height="50" as="geometry" />
        </mxCell>
        <mxCell id="2RrRSTnliVrdSCVUR0gN-230" value="&lt;div&gt;&lt;b&gt;SPI&amp;nbsp;&lt;/b&gt;&lt;/div&gt;&lt;div&gt;&lt;b&gt;Read ACC&lt;/b&gt;&lt;/div&gt;" style="rounded=0;whiteSpace=wrap;html=1;fontFamily=NewsGotT;fontSize=14;strokeWidth=2;" parent="1" vertex="1">
          <mxGeometry x="370.06" y="215" width="180" height="162.5" as="geometry" />
        </mxCell>
        <mxCell id="2RrRSTnliVrdSCVUR0gN-242" style="edgeStyle=orthogonalEdgeStyle;rounded=0;orthogonalLoop=1;jettySize=auto;html=1;" parent="1" source="2RrRSTnliVrdSCVUR0gN-232" target="2RrRSTnliVrdSCVUR0gN-226" edge="1">
          <mxGeometry relative="1" as="geometry">
            <Array as="points">
              <mxPoint x="345.06" y="260" />
              <mxPoint x="345.06" y="260" />
            </Array>
          </mxGeometry>
        </mxCell>
        <mxCell id="2RrRSTnliVrdSCVUR0gN-232" value="SPI_CLK" style="text;html=1;align=left;verticalAlign=middle;resizable=0;points=[];autosize=1;strokeColor=none;fillColor=none;spacing=0;fontFamily=NewsGotT;spacingLeft=3;spacingRight=-10;spacingBottom=-2;spacingTop=-2;" parent="1" vertex="1">
          <mxGeometry x="370.06" y="249.5" width="45" height="20" as="geometry" />
        </mxCell>
        <mxCell id="2RrRSTnliVrdSCVUR0gN-243" style="edgeStyle=orthogonalEdgeStyle;rounded=0;orthogonalLoop=1;jettySize=auto;html=1;" parent="1" source="2RrRSTnliVrdSCVUR0gN-226" target="2RrRSTnliVrdSCVUR0gN-233" edge="1">
          <mxGeometry relative="1" as="geometry">
            <Array as="points">
              <mxPoint x="345.06" y="285" />
              <mxPoint x="345.06" y="285" />
            </Array>
          </mxGeometry>
        </mxCell>
        <mxCell id="2RrRSTnliVrdSCVUR0gN-233" value="SPI_MISO" style="text;html=1;align=left;verticalAlign=middle;resizable=0;points=[];autosize=1;strokeColor=none;fillColor=none;spacing=0;fontFamily=NewsGotT;spacingLeft=3;spacingRight=-10;spacingBottom=-2;spacingTop=-2;" parent="1" vertex="1">
          <mxGeometry x="370.06" y="274.5" width="50" height="20" as="geometry" />
        </mxCell>
        <mxCell id="2RrRSTnliVrdSCVUR0gN-244" style="edgeStyle=orthogonalEdgeStyle;rounded=0;orthogonalLoop=1;jettySize=auto;html=1;" parent="1" source="2RrRSTnliVrdSCVUR0gN-234" target="2RrRSTnliVrdSCVUR0gN-226" edge="1">
          <mxGeometry relative="1" as="geometry">
            <Array as="points">
              <mxPoint x="345.06" y="309" />
              <mxPoint x="345.06" y="309" />
            </Array>
          </mxGeometry>
        </mxCell>
        <mxCell id="2RrRSTnliVrdSCVUR0gN-234" value="SPI_MOSI" style="text;html=1;align=left;verticalAlign=middle;resizable=0;points=[];autosize=1;strokeColor=none;fillColor=none;fontFamily=NewsGotT;fontSize=12;fontColor=default;spacing=0;spacingLeft=3;spacingRight=-10;spacingBottom=-2;spacingTop=-2;" parent="1" vertex="1">
          <mxGeometry x="370.06" y="298.5" width="50" height="20" as="geometry" />
        </mxCell>
        <mxCell id="2RrRSTnliVrdSCVUR0gN-245" style="edgeStyle=orthogonalEdgeStyle;rounded=0;orthogonalLoop=1;jettySize=auto;html=1;" parent="1" source="2RrRSTnliVrdSCVUR0gN-235" target="2RrRSTnliVrdSCVUR0gN-226" edge="1">
          <mxGeometry relative="1" as="geometry">
            <Array as="points">
              <mxPoint x="350.06" y="333" />
              <mxPoint x="350.06" y="333" />
            </Array>
          </mxGeometry>
        </mxCell>
        <mxCell id="2RrRSTnliVrdSCVUR0gN-235" value="SPI_CS" style="text;html=1;align=left;verticalAlign=middle;resizable=0;points=[];autosize=1;strokeColor=none;fillColor=none;fontFamily=NewsGotT;fontSize=12;fontColor=default;spacing=0;spacingLeft=3;spacingRight=-10;spacingBottom=-2;spacingTop=-2;" parent="1" vertex="1">
          <mxGeometry x="370.06" y="322.5" width="40" height="20" as="geometry" />
        </mxCell>
        <mxCell id="2RrRSTnliVrdSCVUR0gN-252" style="edgeStyle=orthogonalEdgeStyle;rounded=0;orthogonalLoop=1;jettySize=auto;html=1;" parent="1" source="2RrRSTnliVrdSCVUR0gN-237" target="2RrRSTnliVrdSCVUR0gN-214" edge="1">
          <mxGeometry relative="1" as="geometry">
            <Array as="points">
              <mxPoint x="595.06" y="283" />
              <mxPoint x="595.06" y="283" />
            </Array>
          </mxGeometry>
        </mxCell>
        <mxCell id="2RrRSTnliVrdSCVUR0gN-237" value="data[12:0]" style="text;html=1;align=right;verticalAlign=middle;resizable=0;points=[];autosize=1;strokeColor=none;fillColor=none;fontFamily=NewsGotT;fontSize=12;fontColor=default;spacing=0;spacingRight=3;spacingLeft=-9;spacingBottom=-2;spacingTop=-2;" parent="1" vertex="1">
          <mxGeometry x="500.05999999999995" y="272.75" width="50" height="20" as="geometry" />
        </mxCell>
        <mxCell id="2RrRSTnliVrdSCVUR0gN-253" style="edgeStyle=orthogonalEdgeStyle;rounded=0;orthogonalLoop=1;jettySize=auto;html=1;" parent="1" source="2RrRSTnliVrdSCVUR0gN-238" target="2RrRSTnliVrdSCVUR0gN-216" edge="1">
          <mxGeometry relative="1" as="geometry">
            <Array as="points">
              <mxPoint x="600.06" y="310" />
              <mxPoint x="600.06" y="310" />
            </Array>
          </mxGeometry>
        </mxCell>
        <mxCell id="2RrRSTnliVrdSCVUR0gN-238" value="data_valid" style="text;html=1;align=right;verticalAlign=middle;resizable=0;points=[];autosize=1;strokeColor=none;fillColor=none;fontFamily=NewsGotT;fontSize=12;fontColor=default;spacing=0;spacingRight=3;spacingLeft=-9;spacingBottom=-2;spacingTop=-2;" parent="1" vertex="1">
          <mxGeometry x="500.05999999999995" y="299.75" width="50" height="20" as="geometry" />
        </mxCell>
        <mxCell id="2RrRSTnliVrdSCVUR0gN-247" style="edgeStyle=orthogonalEdgeStyle;rounded=0;orthogonalLoop=1;jettySize=auto;html=1;" parent="1" source="2RrRSTnliVrdSCVUR0gN-226" target="2RrRSTnliVrdSCVUR0gN-246" edge="1">
          <mxGeometry relative="1" as="geometry">
            <Array as="points">
              <mxPoint x="335.06" y="358" />
              <mxPoint x="335.06" y="358" />
            </Array>
          </mxGeometry>
        </mxCell>
        <mxCell id="2RrRSTnliVrdSCVUR0gN-246" value="INTR" style="text;html=1;align=left;verticalAlign=middle;resizable=0;points=[];autosize=1;strokeColor=none;fillColor=none;fontFamily=NewsGotT;fontSize=12;fontColor=default;spacing=0;spacingLeft=3;spacingRight=-10;spacingBottom=-2;spacingTop=-2;" parent="1" vertex="1">
          <mxGeometry x="370.06" y="347.5" width="25" height="20" as="geometry" />
        </mxCell>
        <mxCell id="2RrRSTnliVrdSCVUR0gN-254" value="&lt;div&gt;&lt;b&gt;Processor&lt;/b&gt;&lt;/div&gt;&lt;div&gt;&lt;b&gt;System&lt;/b&gt;&lt;/div&gt;" style="rounded=0;whiteSpace=wrap;html=1;fontFamily=NewsGotT;strokeColor=default;strokeWidth=2;align=center;verticalAlign=middle;fontSize=14;fontColor=default;fillColor=default;" parent="1" vertex="1">
          <mxGeometry x="100.06" y="40" width="145" height="90" as="geometry" />
        </mxCell>
        <mxCell id="2RrRSTnliVrdSCVUR0gN-270" value="axi_lite" style="edgeStyle=orthogonalEdgeStyle;rounded=0;orthogonalLoop=1;jettySize=auto;html=1;fontFamily=NewsGotT;fontSize=12;" parent="1" source="2RrRSTnliVrdSCVUR0gN-262" target="2RrRSTnliVrdSCVUR0gN-267" edge="1">
          <mxGeometry x="-0.0667" y="10" relative="1" as="geometry">
            <mxPoint as="offset" />
          </mxGeometry>
        </mxCell>
        <mxCell id="2RrRSTnliVrdSCVUR0gN-262" value="AXI_M" style="text;html=1;align=right;verticalAlign=middle;resizable=0;points=[];autosize=1;strokeColor=none;fillColor=none;fontFamily=NewsGotT;fontSize=12;fontColor=default;spacing=0;spacingRight=3;spacingLeft=-9;spacingBottom=-2;spacingTop=-2;" parent="1" vertex="1">
          <mxGeometry x="210.06" y="75" width="35" height="20" as="geometry" />
        </mxCell>
        <mxCell id="2RrRSTnliVrdSCVUR0gN-265" value="AXI_S" style="text;html=1;align=left;verticalAlign=middle;resizable=0;points=[];autosize=1;strokeColor=none;fillColor=none;spacing=0;fontFamily=NewsGotT;spacingLeft=3;spacingRight=-10;spacingBottom=-2;spacingTop=-2;" parent="1" vertex="1">
          <mxGeometry x="370.06" y="225" width="30" height="20" as="geometry" />
        </mxCell>
        <mxCell id="2RrRSTnliVrdSCVUR0gN-266" value="&lt;div&gt;&lt;b&gt;AXI&lt;/b&gt;&lt;/div&gt;&lt;div&gt;&lt;b&gt;Interconnect&lt;/b&gt;&lt;/div&gt;" style="rounded=0;whiteSpace=wrap;html=1;fontFamily=NewsGotT;fontSize=14;strokeColor=default;strokeWidth=2;align=center;verticalAlign=middle;fontColor=default;fillColor=default;" parent="1" vertex="1">
          <mxGeometry x="320.06" y="35" width="145" height="130" as="geometry" />
        </mxCell>
        <mxCell id="2RrRSTnliVrdSCVUR0gN-267" value="AXI_S" style="text;html=1;align=left;verticalAlign=middle;resizable=0;points=[];autosize=1;strokeColor=none;fillColor=none;spacing=0;fontFamily=NewsGotT;spacingLeft=3;spacingRight=-10;spacingBottom=-2;spacingTop=-2;" parent="1" vertex="1">
          <mxGeometry x="320.06" y="75" width="30" height="20" as="geometry" />
        </mxCell>
        <mxCell id="2RrRSTnliVrdSCVUR0gN-272" style="edgeStyle=orthogonalEdgeStyle;rounded=0;orthogonalLoop=1;jettySize=auto;html=1;" parent="1" source="2RrRSTnliVrdSCVUR0gN-271" target="2RrRSTnliVrdSCVUR0gN-265" edge="1">
          <mxGeometry relative="1" as="geometry">
            <Array as="points">
              <mxPoint x="485.05999999999995" y="130" />
              <mxPoint x="485.05999999999995" y="190" />
              <mxPoint x="345.06" y="190" />
              <mxPoint x="345.06" y="235" />
            </Array>
          </mxGeometry>
        </mxCell>
        <mxCell id="2RrRSTnliVrdSCVUR0gN-271" value="AXI_M" style="text;html=1;align=left;verticalAlign=middle;resizable=0;points=[];autosize=1;strokeColor=none;fillColor=none;spacing=0;fontFamily=NewsGotT;spacingLeft=3;spacingRight=-10;spacingBottom=-2;spacingTop=-2;" parent="1" vertex="1">
          <mxGeometry x="430.06" y="120" width="35" height="20" as="geometry" />
        </mxCell>
      </root>
    </mxGraphModel>
  </diagram>
</mxfile>
